<svg id="Layer_1" data-name="Layer 1" xmlns="http://www.w3.org/2000/svg" viewBox="0 0 566.68 567"><defs><style>.cls-1{fill:#ce5360;}.cls-2{fill:#b37d4e;}.cls-3{fill:#286ea9;}.cls-4{fill:#438497;}.cls-5{fill:#dcdcdc;}</style></defs><path class="cls-1" d="M283.42,283.64h280a280,280,0,0,1-280,280Z"/><path class="cls-2" d="M283.42,283.64H3.4a280,280,0,0,0,280,280Z"/><path class="cls-3" d="M283.42,283.64h280a280,280,0,0,0-280-280Z"/><path class="cls-4" d="M283.42,283.64H3.4a280,280,0,0,1,280-280Z"/><g id="icon"><polygon class="cls-5" points="145.7 103.94 192.88 74.31 370.66 74.31 421.69 103.94 283.62 122.05 145.7 103.94"/><path d="M152,114.73l47.18-29.62-6.31,1.7H370.66l-6.31-1.7,51,29.62,6.31-23.29L300.74,107.3c-5.49.72-11.34,2.14-16.89,2.22-3.63,0-7.51-.93-11.1-1.4l-70.41-9.24L145.7,91.44c-6.71-.88-12.5,6.38-12.5,12.5,0,7.49,5.77,11.62,12.5,12.5L266.51,132.3c5.49.72,11.33,2.14,16.87,2.22,3.64,0,7.52-.93,11.12-1.4L365,123.88l56.71-7.44c5.56-.73,10.46-3.38,12.05-9.18A12.74,12.74,0,0,0,428,93.15c-16.91-9.82-33.54-20.69-51-29.59-5-2.54-11.22-1.75-16.65-1.75H247.15c-17.74,0-35.57-.54-53.3,0a18.22,18.22,0,0,0-9.49,3.1l-15.53,9.75L139.39,93.15a12.76,12.76,0,0,0-4.49,17.1C138.24,116,146.27,118.34,152,114.73Z"/><polygon class="cls-5" points="283.62 122.05 283.97 288.3 421.69 360.73 508.93 255.38 421.69 103.94 283.62 122.05"/><path d="M271.12,122.05l.3,145.65.05,20.6a12.46,12.46,0,0,0,6.19,10.8L398.3,362.54l17.08,9c4.54,2.39,11.55,2.39,15.15-1.95L507.1,277.1l10.67-12.88c3.61-4.36,4.91-10,2-15.15L490.3,198l-47-81.51L432.48,97.63c-2-3.43-6.61-6.74-10.79-6.19L300.74,107.3l-17.12,2.25c-6.7.88-12.5,5.12-12.5,12.5,0,6.07,5.76,13.38,12.5,12.5l121-15.86,17.12-2.25-10.8-6.19,29.43,51.08,47,81.51,10.86,18.85,1.95-15.15L423.52,339l-10.67,12.89L428,349.94,307.35,286.49l-17.07-9,6.19,10.79-.31-145.65,0-20.6C296.08,106,271.08,105.93,271.12,122.05Z"/><polygon class="cls-5" points="283.62 122.05 283.62 288.3 145.7 360.73 57.91 255.38 145.7 103.94 283.62 122.05"/><path d="M271.12,122.05V288.3l6.19-10.79L156.49,341l-17.1,9,15.15,1.95L77.48,259.43,66.74,246.54l2,15.15,29.61-51.08,47.25-81.51,10.93-18.85-10.79,6.19L266.51,132.3l17.11,2.25c6.7.88,12.5-6.38,12.5-12.5,0-7.49-5.78-11.62-12.5-12.5L162.8,93.69l-17.1-2.25c-4.19-.55-8.81,2.77-10.8,6.19l-29.61,51.08L58,230.22,47.11,249.07c-3,5.17-1.65,10.82,2,15.15l77.05,92.46,10.74,12.89c3.62,4.35,10.54,4.37,15.15,1.95l120.81-63.44,17.11-9a12.48,12.48,0,0,0,6.19-10.8V122.05C296.12,106,271.12,105.94,271.12,122.05Z"/><polygon class="cls-5" points="283.62 288.3 421.69 360.73 370.66 492.96 192.88 492.96 145.7 360.73 283.62 288.3"/><path d="M277.31,299.1l121,63.44,17.12,9-5.75-14.11L365,473.17l-6.35,16.47,12.05-9.18H192.88l12.06,9.18-41.32-115.8-5.87-16.43L152,371.52l120.81-63.44,17.11-9c6-3.14,7.78-11.47,4.48-17.11-3.54-6.05-11.1-7.63-17.1-4.48L156.49,341l-17.1,9c-4.57,2.4-7.53,9.13-5.75,14.11L175,479.85l5.87,16.44c1.87,5.23,6.26,9.17,12,9.17H370.66c5.95,0,10-4,12-9.17l44.67-115.76,6.36-16.48c1.89-4.9-1.22-11.74-5.74-14.11L307.05,286.49l-17.12-9c-6-3.14-13.59-1.53-17.11,4.48C269.53,287.63,271.31,296,277.31,299.1Z"/><polygon class="cls-5" points="57.91 255.38 145.7 360.73 192.88 492.96 145.7 463.88 57.91 317.93 57.91 255.38"/><path d="M49.07,264.22l77.05,92.46,10.74,12.89-3.22-5.52L175,479.85l5.87,16.44,18.36-14.12L152,453.09l4.48,4.48-77-128L68.7,311.62l1.71,6.31V255.38c0-16.09-25-16.11-25,0,0,20.4-.58,40.88,0,61.27.16,5.68,2.71,9.26,5.47,13.86l14.42,24,42.07,69.93c9,15,17.67,30.38,27.14,45.13,2,3,4.52,4.92,7.49,6.75l16,9.83,28.61,17.64c8.86,5.46,22.08-3.71,18.37-14.12L163.73,374.17c-1.95-5.46-3.8-11-5.85-16.39-1.83-4.84-5.75-8.77-9-12.73l-45.2-54.24-36.9-44.27c-4.32-5.19-13.2-4.47-17.67,0C43.93,251.68,44.73,259,49.07,264.22Z"/><polygon class="cls-5" points="508.93 255.38 508.93 317.93 421.69 463.88 370.66 492.96 421.69 360.73 508.93 255.38"/><path d="M496.43,255.38v62.55l1.71-6.31L421.59,439.68l-10.7,17.89,4.49-4.48-51,29.08,18.36,14.12,44.67-115.76,6.36-16.48-3.21,5.52L507.1,277.1l10.67-12.88c4.3-5.2,5.09-12.59,0-17.68-4.43-4.43-13.35-5.22-17.68,0l-78,94.24c-3.07,3.7-6.19,7.36-9.2,11.11-3.71,4.61-5.49,11.42-7.61,16.92l-26.12,67.67-20.51,53.16c-4.1,10.63,9.58,19.12,18.36,14.12l24.65-14.05c8.72-5,17.89-9.52,26.3-15,4.64-3,7.26-9,10-13.66l15.66-26.2,42.28-70.74c7.9-13.21,16.73-26.22,23.84-39.87,2.29-4.39,1.71-9.5,1.71-14.29V255.38C521.43,239.29,496.43,239.27,496.43,255.38Z"/></g></svg>